PathFileType	4	(X/Y/Z)	Walk3.trc
DataRate	CameraRate	NumFrames	NumMarkers	Units	OrigDataRate	OrigDataStartFrame	OrigNumFrames
200.000000	200.000000	8	60	mm	200.000000	491	799
Frame#	Times		LToe		RCAR		RWRU		LLFC		RWRR		LFA1		RACR1		LUA1		STRN		LACR1		LElbow		RTH3		RLFC		LCAR		RFA1		RTB2		RToe		RFHD		RMT1		RMFC		LWRU		RTH2		RTB3		RMT5		LPSI		C7		LWRR		RPSI		RTB1		LTB1		RCAL		LTH3		LFHD		RTB4		LTB4		RASI		LTH4		RMMAL		LMT1		RLMAL		CLAV		LMFC		LTH2		LBHD		RBHD		RElbow		LTB2		LTB3		RUA1		RBack		LMMAL		RTH4		T10		LTH1		LCAL		RTH1		LMT5		LElbowM		RElbowM		LLMAL
			X1	Y1	Z1	X2	Y2	Z2	X3	Y3	Z3	X4	Y4	Z4	X5	Y5	Z5	X6	Y6	Z6	X7	Y7	Z7	X8	Y8	Z8	X9	Y9	Z9	X10	Y10	Z10	X11	Y11	Z11	X12	Y12	Z12	X13	Y13	Z13	X14	Y14	Z14	X15	Y15	Z15	X16	Y16	Z16	X17	Y17	Z17	X18	Y18	Z18	X19	Y19	Z19	X20	Y20	Z20	X21	Y21	Z21	X22	Y22	Z22	X23	Y23	Z23	X24	Y24	Z24	X25	Y25	Z25	X26	Y26	Z26	X27	Y27	Z27	X28	Y28	Z28	X29	Y29	Z29	X30	Y30	Z30	X31	Y31	Z31	X32	Y32	Z32	X33	Y33	Z33	X34	Y34	Z34	X35	Y35	Z35	X36	Y36	Z36	X37	Y37	Z37	X38	Y38	Z38	X39	Y39	Z39	X40	Y40	Z40	X41	Y41	Z41	X42	Y42	Z42	X43	Y43	Z43	X44	Y44	Z44	X45	Y45	Z45	X46	Y46	Z46	X47	Y47	Z47	X48	Y48	Z48	X49	Y49	Z49	X50	Y50	Z50	X51	Y51	Z51	X52	Y52	Z52	X53	Y53	Z53	X54	Y54	Z54	X55	Y55	Z55	X56	Y56	Z56	X57	Y57	Z57	X58	Y58	Z58	X59	Y59	Z59	X60	Y60	Z60

491	2.455	-202.73	30.301	-34.789	-192.59	845.44	349.16	-251.18	885.91	341.88	-326.82	503.39	-156.26	-178.86	889.82	289.45	-99.631	1071.3	-325.21	-215.97	1498.4	181.79	-196.28	1350	-273.73	-86.655	1294.2	-8.1482	-205.1	1531.5	-190.47	-210.16	1180.1	-327.31	-136.28	649.52	200.43	-77.274	530.81	198.85	-17.621	926.7	-332.95	-226.38	1029.7	315.74	-1.7096	306.46	180.15	178.85	101.22	134.87	-85.748	1718	67.236	130.91	97.726	116.98	-71.641	515.39	50.271	-96.423	938.13	-332.53	-124.34	752.85	215.1	5.1925	222.25	115.8	89.69	70.317	199.71	-377.63	1077.2	-69.34	-315.75	1558.7	-2.2852	-25.699	964.17	-276.94	-378.35	1061.8	38.53	-1.8638	394.66	122.08	-316.57	356.36	-45.376	-81.895	45.625	114.47	-273.32	646.22	-181.69	-80.572	1725.1	-37.619	1.4224	307.79	118.39	-338.39	274.51	-37.458	-162.94	1040.4	152.38	-259.75	731.45	-202.1	-1.1073	124.29	70.297	-259.92	46.583	-21.246	-33.345	91.273	160.52	-148.74	1469.4	-15.189	-324.01	507.37	-13.688	-204.71	725.57	-181.84	-242.32	1689.4	-67.391	-253.38	1682.9	73.987	-304.1	1163.2	296.26	-318.52	264.06	-96.924	-357.28	191.05	-30.577	-249.19	1319.8	255.46	-380.13	1437.6	111.85	-397.1	98.238	13.65	-176.98	723.74	203.55	-360.64	1201.7	-18.657	-247.42	814.71	-218.15	-486.18	49.524	-46.89	-216.36	802.53	205.55	-304.26	26.176	-115.49	-244.56	1146.1	-245.31	-326.81	1137.8	205.27	-418.25	70.911	-84.411
492	2.46	-202.63	30.292	-34.767	-189.25	844.22	349.44	-247.64	884.95	342.1	-324.07	503.19	-155.94	-175.27	888.57	289.77	-94.047	1070.7	-324.64	-210.96	1497.6	182.18	-191.08	1349.2	-273.35	-81.563	1293.4	-7.8465	-200.04	1530.6	-190.1	-204.8	1179.3	-326.94	-132.31	647.93	199.78	-72.405	529.47	198.48	-11.688	926.31	-332.24	-222.29	1028.7	315.96	8.6358	306.91	180.29	193.89	105.04	134.67	-80.686	1717.1	67.717	145.95	100.51	117.11	-66.526	514.15	49.599	-90.523	937.55	-331.9	-120.25	751.17	215.24	17.233	222.63	116.26	105.74	72.475	200.15	-372.53	1076.4	-68.695	-310.71	1557.9	-1.9271	-19.906	963.81	-276.28	-373.16	1060.9	39.114	6.0935	394.85	121.9	-314.64	356	-45.131	-65.831	44.131	115.92	-269.89	645.79	-181.42	-75.491	1724.3	-37.138	11.47	308.08	118.54	-336.96	274.29	-37.249	-157.61	1039.7	152.68	-255.96	730.93	-201.8	13.044	124.38	71.069	-259.84	46.537	-21.251	-18.034	90.9	161.54	-143.66	1468.6	-14.824	-321.05	507.12	-13.353	-201.01	724.92	-181.53	-237.23	1688.6	-66.944	-248.33	1682.1	74.425	-299.54	1162.4	296.36	-317.17	263.74	-96.714	-356.36	190.98	-30.415	-244.39	1319	255.8	-375.15	1436.8	112.21	-396.76	98.374	13.867	-172.84	722.23	203.13	-355.54	1200.9	-18.07	-243.28	814.16	-217.91	-486.09	49.984	-46.732	-212.13	801.06	205.22	-304.28	26.212	-115.39	-239.22	1145.3	-244.96	-322.16	1137.2	205.34	-418.05	71.176	-84.282
493	2.465	-202.53	30.284	-34.753	-185.86	843	349.73	-244.05	883.97	342.34	-321.31	503.01	-155.63	-171.63	887.3	290.1	-88.503	1070.1	-324.05	-205.93	1496.8	182.58	-185.88	1348.3	-272.95	-76.449	1292.6	-7.5273	-194.96	1529.8	-189.71	-199.46	1178.4	-326.54	-128.37	646.31	199.15	-67.568	528.12	198.11	-5.8228	925.86	-331.51	-218.16	1027.6	316.2	18.792	307.42	180.41	208.59	108.89	134.54	-75.616	1716.2	68.213	160.67	103.37	117.28	-61.505	512.87	48.946	-84.689	936.92	-331.24	-116.17	749.44	215.4	29.063	223.1	116.7	121.42	74.716	200.59	-367.41	1075.6	-68.044	-305.66	1557	-1.5478	-14.166	963.38	-275.59	-367.93	1060	39.707	13.927	395.06	121.73	-312.68	355.66	-44.885	-50.042	42.866	117.26	-266.45	645.38	-181.16	-70.399	1723.4	-36.64	21.357	308.42	118.69	-335.51	274.08	-37.037	-152.23	1038.9	152.97	-252.17	730.41	-201.5	26.961	124.62	71.801	-259.76	46.495	-21.256	-3.0217	90.706	162.5	-138.58	1467.8	-14.44	-318.05	506.88	-13.016	-197.3	724.28	-181.26	-232.13	1687.8	-66.482	-243.27	1681.2	74.878	-294.94	1161.6	296.49	-315.81	263.43	-96.502	-355.42	190.92	-30.248	-239.57	1318.2	256.16	-370.15	1436	112.59	-396.41	98.531	14.104	-168.7	720.7	202.74	-350.42	1200	-17.461	-239.15	813.62	-217.68	-485.99	50.479	-46.552	-207.9	799.58	204.91	-304.3	26.253	-115.29	-233.89	1144.4	-244.58	-317.48	1136.5	205.44	-417.86	71.467	-84.136
494	2.47	-202.43	30.274	-34.749	-182.42	841.75	350.03	-240.41	882.98	342.59	-318.53	502.83	-155.3	-167.96	886.02	290.44	-82.998	1069.4	-323.44	-200.89	1495.9	183.01	-180.7	1347.5	-272.54	-71.315	1291.8	-7.1891	-189.89	1529	-189.3	-194.14	1177.6	-326.11	-124.43	644.67	198.55	-62.746	526.77	197.75	-0.025057	925.34	-330.76	-213.98	1026.5	316.45	28.748	307.97	180.53	222.93	112.74	134.48	-70.537	1715.3	68.725	175.06	106.27	117.48	-56.565	511.56	48.323	-78.919	936.24	-330.56	-112.08	747.69	215.57	40.667	223.66	117.12	136.69	77	201.03	-362.24	1074.7	-67.386	-300.6	1556.1	-1.1469	-8.4812	962.9	-274.89	-362.68	1059.1	40.309	21.639	395.28	121.58	-310.7	355.32	-44.638	-34.565	41.816	118.45	-263	644.97	-180.91	-65.298	1722.5	-36.126	31.077	308.8	118.83	-334.04	273.88	-36.822	-146.82	1038.2	153.27	-248.38	729.9	-201.21	40.622	125	72.475	-259.67	46.46	-21.257	11.659	90.67	163.37	-133.47	1466.9	-14.039	-315.01	506.63	-12.677	-193.57	723.65	-181.01	-227.03	1686.9	-66.006	-238.2	1680.3	75.344	-290.3	1160.7	296.64	-314.44	263.13	-96.289	-354.47	190.88	-30.074	-234.72	1317.4	256.55	-365.14	1435.2	113	-396.03	98.711	14.361	-164.55	719.14	202.38	-345.27	1199.1	-16.832	-235.01	813.08	-217.45	-485.89	51.013	-46.349	-203.65	798.11	204.65	-304.33	26.296	-115.18	-228.59	1143.5	-244.17	-312.77	1135.8	205.56	-417.67	71.784	-83.973
495	2.475	-202.34	30.263	-34.756	-178.93	840.5	350.34	-236.72	881.97	342.86	-315.73	502.66	-154.98	-164.25	884.73	290.8	-77.532	1068.7	-322.82	-195.84	1495.1	183.45	-175.52	1346.6	-272.11	-66.16	1291	-6.8302	-184.81	1528.1	-188.88	-188.84	1176.7	-325.64	-120.48	643.02	197.99	-57.923	525.43	197.42	5.7053	924.76	-329.99	-209.77	1025.4	316.73	38.49	308.55	180.65	236.88	116.54	134.48	-65.45	1714.4	69.253	189.08	109.17	117.71	-51.687	510.24	47.744	-73.215	935.51	-329.85	-107.96	745.93	215.77	52.027	224.29	117.5	151.53	79.289	201.44	-357.05	1073.9	-66.723	-295.53	1555.2	-0.72357	-2.8503	962.35	-274.17	-357.39	1058.1	40.919	29.232	395.5	121.45	-308.69	354.99	-44.389	-19.44	40.965	119.47	-259.54	644.57	-180.66	-60.187	1721.6	-35.595	40.621	309.23	118.97	-332.55	273.71	-36.603	-141.37	1037.4	153.56	-244.57	729.4	-200.93	54.004	125.51	73.078	-259.57	46.431	-21.254	25.973	90.77	164.12	-128.36	1466	-13.617	-311.94	506.39	-12.336	-189.82	723.04	-180.77	-221.91	1686	-65.513	-233.13	1679.4	75.826	-285.63	1159.9	296.82	-313.06	262.84	-96.073	-353.5	190.86	-29.893	-229.84	1316.6	256.97	-360.1	1434.3	113.44	-395.63	98.913	14.634	-160.37	717.59	202.07	-340.1	1198.2	-16.184	-230.86	812.54	-217.23	-485.79	51.588	-46.126	-199.36	796.65	204.43	-304.36	26.343	-115.05	-223.3	1142.6	-243.71	-308.03	1135	205.71	-417.47	72.128	-83.791
496	2.48	-202.25	30.249	-34.774	-175.39	839.23	350.67	-232.98	880.95	343.15	-312.9	502.51	-154.64	-160.49	883.42	291.17	-72.104	1067.9	-322.17	-190.77	1494.2	183.92	-170.35	1345.7	-271.65	-60.983	1290.2	-6.4493	-179.73	1527.2	-188.45	-183.56	1175.7	-325.14	-116.48	641.38	197.48	-53.085	524.08	197.11	11.368	924.11	-329.21	-205.51	1024.3	317.02	48.006	309.13	180.75	250.41	120.26	134.54	-60.355	1713.4	69.797	202.71	112.06	117.95	-46.852	508.9	47.219	-67.576	934.73	-329.12	-103.79	744.18	216.01	63.125	224.97	117.85	165.9	81.54	201.81	-351.81	1073	-66.054	-290.44	1554.3	-0.27751	2.7266	961.73	-273.43	-352.07	1057.1	41.539	36.708	395.71	121.34	-306.66	354.67	-44.137	-4.7054	40.296	120.29	-256.05	644.18	-180.4	-55.068	1720.7	-35.047	49.979	309.69	119.09	-331.03	273.55	-36.379	-135.9	1036.6	153.86	-240.73	728.9	-200.65	67.08	126.13	73.594	-259.47	46.407	-21.244	39.885	90.98	164.75	-123.23	1465.2	-13.176	-308.83	506.15	-11.993	-186.05	722.44	-180.54	-216.79	1685.2	-65.003	-228.04	1678.5	76.324	-280.92	1159	297.02	-311.66	262.57	-95.854	-352.52	190.86	-29.703	-224.93	1315.8	257.42	-355.04	1433.4	113.9	-395.22	99.139	14.921	-156.15	716.04	201.81	-334.89	1197.2	-15.518	-226.69	812.01	-217	-485.68	52.206	-45.884	-195.02	795.21	204.26	-304.4	26.394	-114.91	-218.02	1141.6	-243.23	-303.26	1134.3	205.89	-417.27	72.501	-83.594
497	2.485	-202.17	30.232	-34.801	-171.79	837.96	351.02	-229.19	879.92	343.45	-310.04	502.36	-154.3	-156.69	882.11	291.56	-66.714	1067	-321.51	-185.68	1493.3	184.41	-165.19	1344.7	-271.18	-55.784	1289.4	-6.0451	-174.65	1526.3	-187.99	-178.29	1174.8	-324.6	-112.42	639.76	197.04	-48.217	522.75	196.83	16.963	923.39	-328.41	-201.2	1023.2	317.34	57.282	309.7	180.84	263.52	123.85	134.63	-55.252	1712.5	70.359	215.93	114.88	118.19	-42.037	507.58	46.757	-62.002	933.9	-328.36	-99.548	742.46	216.27	73.945	225.68	118.15	179.78	83.713	202.12	-346.55	1072.1	-65.378	-285.35	1553.4	0.19147	8.2495	961.05	-272.67	-346.72	1056.1	42.167	44.07	395.92	121.27	-304.6	354.37	-43.881	9.5958	39.785	120.9	-252.52	643.8	-180.15	-49.939	1719.8	-34.482	59.142	310.15	119.2	-329.49	273.41	-36.148	-130.4	1035.8	154.17	-236.87	728.4	-200.36	79.823	126.83	74.01	-259.36	46.388	-21.227	53.361	91.271	165.22	-118.08	1464.3	-12.714	-305.69	505.92	-11.646	-182.23	721.84	-180.32	-211.65	1684.3	-64.477	-222.95	1677.6	76.839	-276.17	1158.1	297.25	-310.25	262.32	-95.631	-351.52	190.88	-29.504	-219.99	1314.9	257.9	-349.96	1432.5	114.39	-394.79	99.387	15.218	-151.85	714.52	201.62	-329.66	1196.3	-14.838	-222.48	811.48	-216.78	-485.56	52.869	-45.626	-190.61	793.8	204.14	-304.44	26.447	-114.76	-212.75	1140.6	-242.7	-298.45	1133.5	206.1	-417.06	72.904	-83.383
498	2.49	-202.09	30.213	-34.837	-168.14	836.68	351.38	-225.34	878.87	343.78	-307.14	502.22	-153.95	-152.84	880.79	291.96	-61.36	1066.1	-320.83	-180.57	1492.4	184.92	-160.04	1343.8	-270.69	-50.562	1288.6	-5.6161	-169.56	1525.3	-187.53	-173.04	1173.8	-324.03	-108.26	638.18	196.68	-43.305	521.43	196.59	22.489	922.6	-327.59	-196.85	1022.1	317.69	66.305	310.24	180.92	276.16	127.29	134.75	-50.14	1711.5	70.937	228.71	117.61	118.41	-37.219	506.27	46.365	-56.493	933.02	-327.58	-95.223	740.78	216.58	84.468	226.4	118.39	193.14	85.768	202.35	-341.24	1071.3	-64.696	-280.24	1552.5	0.68332	13.718	960.31	-271.91	-341.33	1055.1	42.805	51.322	396.11	121.22	-302.5	354.08	-43.619	23.423	39.408	121.26	-248.96	643.42	-179.88	-44.803	1718.8	-33.9	68.099	310.62	119.3	-327.93	273.29	-35.909	-124.88	1034.9	154.48	-232.96	727.91	-200.08	92.201	127.6	74.316	-259.24	46.372	-21.203	66.367	91.613	165.54	-112.92	1463.4	-12.232	-302.5	505.69	-11.296	-178.38	721.24	-180.08	-206.51	1683.4	-63.932	-217.84	1676.6	77.371	-271.39	1157.2	297.5	-308.82	262.08	-95.403	-350.51	190.91	-29.296	-215.01	1314.1	258.4	-344.85	1431.6	114.9	-394.34	99.66	15.519	-147.47	713.02	201.51	-324.39	1195.3	-14.145	-218.24	810.94	-216.56	-485.44	53.578	-45.36	-186.13	792.43	204.09	-304.49	26.502	-114.61	-207.49	1139.7	-242.14	-293.61	1132.7	206.33	-416.85	73.337	-83.163
